<svg xmlns="http://www.w3.org/2000/svg" xmlns:xlink="http://www.w3.org/1999/xlink" width="500" zoomAndPan="magnify" viewBox="0 0 375.12 383.03998" height="500" preserveAspectRatio="xMidYMid meet" version="1.0"><defs><clipPath id="b4c8ad9072"><path d="M 45 16 L 374.09375 16 L 374.09375 344 L 45 344 Z M 45 16 " clip-rule="nonzero"/></clipPath><clipPath id="1f3d7f9429"><path d="M 127 15.585938 L 207 15.585938 L 207 143 L 127 143 Z M 127 15.585938 " clip-rule="nonzero"/></clipPath><clipPath id="8767bfd207"><path d="M 0.03125 140 L 118 140 L 118 358 L 0.03125 358 Z M 0.03125 140 " clip-rule="nonzero"/></clipPath><clipPath id="4dcdd65423"><path d="M 182 289 L 318 289 L 318 358.226562 L 182 358.226562 Z M 182 289 " clip-rule="nonzero"/></clipPath></defs><path fill="#ed1997" d="M 205.597656 16.535156 L 248.15625 140.484375 L 371.574219 140.425781 L 274.457031 217.082031 L 317.023438 341.007812 L 214.4375 264.449219 L 117.34375 341.113281 L 151.046875 217.121094 L 48.460938 140.558594 L 171.878906 140.5 L 205.597656 16.535156 " fill-opacity="1" fill-rule="nonzero"/><path fill="#f038a5" d="M 207.394531 87.589844 L 232.667969 161.195312 L 305.957031 161.160156 L 248.285156 206.683594 L 273.5625 280.277344 L 212.644531 234.8125 L 154.984375 280.335938 L 175 206.703125 L 114.078125 161.242188 L 187.367188 161.207031 L 207.394531 87.589844 " fill-opacity="1" fill-rule="nonzero"/><path fill="#f9db26" d="M 265.886719 300.378906 C 264.988281 300.378906 264.15625 300.613281 263.410156 300.996094 L 271.246094 306.84375 C 271.308594 306.515625 271.347656 306.179688 271.347656 305.832031 C 271.347656 302.835938 268.914062 300.378906 265.886719 300.378906 " fill-opacity="1" fill-rule="nonzero"/><path fill="#f9db26" d="M 279.347656 156.980469 C 276.3125 156.980469 273.886719 159.410156 273.886719 162.4375 C 273.886719 165.4375 276.3125 167.894531 279.347656 167.894531 C 282.347656 167.894531 284.804688 165.4375 284.804688 162.4375 C 284.804688 159.410156 282.347656 156.980469 279.347656 156.980469 " fill-opacity="1" fill-rule="nonzero"/><path fill="#f9db26" d="M 274.757812 216.84375 L 277.519531 214.664062 C 276.371094 215.070312 275.402344 215.839844 274.757812 216.84375 " fill-opacity="1" fill-rule="nonzero"/><path fill="#f9db26" d="M 271.347656 191.113281 C 271.347656 188.113281 268.914062 185.65625 265.886719 185.65625 C 262.855469 185.65625 260.425781 188.113281 260.425781 191.113281 C 260.425781 194.140625 262.855469 196.566406 265.886719 196.566406 C 268.914062 196.566406 271.347656 194.140625 271.347656 191.113281 " fill-opacity="1" fill-rule="nonzero"/><path fill="#f9db26" d="M 265.886719 253.941406 C 268.914062 253.941406 271.347656 251.488281 271.347656 248.488281 C 271.347656 245.457031 268.914062 243.03125 265.886719 243.03125 C 262.882812 243.03125 260.425781 245.457031 260.425781 248.488281 C 260.425781 251.488281 262.882812 253.941406 265.886719 253.941406 " fill-opacity="1" fill-rule="nonzero"/><path fill="#f9db26" d="M 300.777344 305.832031 C 300.777344 308.863281 303.234375 311.289062 306.238281 311.289062 C 306.429688 311.289062 306.609375 311.253906 306.796875 311.234375 L 303.355469 301.222656 C 301.816406 302.191406 300.777344 303.890625 300.777344 305.832031 " fill-opacity="1" fill-rule="nonzero"/><path fill="#f9db26" d="M 306.238281 185.65625 C 303.234375 185.65625 300.808594 188.113281 300.808594 191.113281 C 300.808594 192.640625 301.429688 194.015625 302.429688 195.003906 L 310.902344 188.316406 C 309.953125 186.730469 308.230469 185.65625 306.238281 185.65625 " fill-opacity="1" fill-rule="nonzero"/><path fill="#f9db26" d="M 225.53125 271.707031 C 225.125 271.707031 224.726562 271.757812 224.34375 271.839844 L 230.953125 276.773438 C 230.75 273.933594 228.40625 271.707031 225.53125 271.707031 " fill-opacity="1" fill-rule="nonzero"/><path fill="#f9db26" d="M 279.347656 282.617188 C 282.347656 282.617188 284.804688 280.164062 284.804688 277.160156 C 284.804688 274.136719 282.347656 271.707031 279.347656 271.707031 C 276.3125 271.707031 273.886719 274.136719 273.886719 277.160156 C 273.886719 280.164062 276.3125 282.617188 279.347656 282.617188 " fill-opacity="1" fill-rule="nonzero"/><path fill="#f9db26" d="M 277.089844 224.75 L 274.523438 217.277344 C 274.128906 218.03125 273.886719 218.875 273.886719 219.785156 C 273.886719 222.007812 275.199219 223.894531 277.089844 224.75 " fill-opacity="1" fill-rule="nonzero"/><path fill="#f9db26" d="M 220.074219 76.390625 C 220.074219 79.417969 222.5 81.84375 225.53125 81.84375 C 226.359375 81.84375 227.136719 81.648438 227.84375 81.320312 L 224.324219 71.078125 C 221.882812 71.628906 220.074219 73.800781 220.074219 76.390625 " fill-opacity="1" fill-rule="nonzero"/><path fill="#f9db26" d="M 225.53125 185.65625 C 222.5 185.65625 220.074219 188.113281 220.074219 191.113281 C 220.074219 194.140625 222.5 196.566406 225.53125 196.566406 C 228.535156 196.566406 230.992188 194.140625 230.992188 191.113281 C 230.992188 188.113281 228.535156 185.65625 225.53125 185.65625 " fill-opacity="1" fill-rule="nonzero"/><path fill="#f9db26" d="M 252.425781 156.980469 C 249.421875 156.980469 246.964844 159.410156 246.964844 162.4375 C 246.964844 165.4375 249.421875 167.894531 252.425781 167.894531 C 255.457031 167.894531 257.886719 165.4375 257.886719 162.4375 C 257.886719 159.410156 255.457031 156.980469 252.425781 156.980469 " fill-opacity="1" fill-rule="nonzero"/><path fill="#f9db26" d="M 225.53125 214.328125 C 222.5 214.328125 220.074219 216.785156 220.074219 219.785156 C 220.074219 222.816406 222.5 225.242188 225.53125 225.242188 C 228.535156 225.242188 230.992188 222.816406 230.992188 219.785156 C 230.992188 216.785156 228.535156 214.328125 225.53125 214.328125 " fill-opacity="1" fill-rule="nonzero"/><path fill="#f9db26" d="M 252.425781 214.328125 C 249.421875 214.328125 246.964844 216.785156 246.964844 219.785156 C 246.964844 222.816406 249.421875 225.242188 252.425781 225.242188 C 255.457031 225.242188 257.886719 222.816406 257.886719 219.785156 C 257.886719 216.785156 255.457031 214.328125 252.425781 214.328125 " fill-opacity="1" fill-rule="nonzero"/><path fill="#f9db26" d="M 225.53125 253.941406 C 228.535156 253.941406 230.992188 251.488281 230.992188 248.488281 C 230.992188 245.457031 228.535156 243.03125 225.53125 243.03125 C 222.5 243.03125 220.074219 245.457031 220.074219 248.488281 C 220.074219 251.488281 222.5 253.941406 225.53125 253.941406 " fill-opacity="1" fill-rule="nonzero"/><path fill="#f9db26" d="M 306.265625 329.050781 C 304.921875 329.050781 303.707031 329.558594 302.757812 330.363281 L 311.265625 336.707031 C 311.558594 336.042969 311.726562 335.3125 311.726562 334.535156 C 311.726562 331.507812 309.265625 329.050781 306.265625 329.050781 " fill-opacity="1" fill-rule="nonzero"/><path fill="#f9db26" d="M 225.53125 156.980469 C 222.5 156.980469 220.074219 159.410156 220.074219 162.4375 C 220.074219 165.4375 222.5 167.894531 225.53125 167.894531 C 228.535156 167.894531 230.992188 165.4375 230.992188 162.4375 C 230.992188 159.410156 228.535156 156.980469 225.53125 156.980469 " fill-opacity="1" fill-rule="nonzero"/><path fill="#f9db26" d="M 225.53125 99.605469 C 222.5 99.605469 220.074219 102.0625 220.074219 105.0625 C 220.074219 108.089844 222.5 110.519531 225.53125 110.519531 C 228.535156 110.519531 230.992188 108.089844 230.992188 105.0625 C 230.992188 102.0625 228.535156 99.605469 225.53125 99.605469 " fill-opacity="1" fill-rule="nonzero"/><path fill="#f9db26" d="M 306.265625 167.894531 C 309.265625 167.894531 311.726562 165.4375 311.726562 162.4375 C 311.726562 159.410156 309.265625 156.980469 306.265625 156.980469 C 303.234375 156.980469 300.808594 159.410156 300.808594 162.4375 C 300.808594 165.4375 303.234375 167.894531 306.265625 167.894531 " fill-opacity="1" fill-rule="nonzero"/><path fill="#f9db26" d="M 225.53125 128.308594 C 222.5 128.308594 220.074219 130.734375 220.074219 133.765625 C 220.074219 136.765625 222.5 139.222656 225.53125 139.222656 C 228.535156 139.222656 230.992188 136.765625 230.992188 133.765625 C 230.992188 130.734375 228.535156 128.308594 225.53125 128.308594 " fill-opacity="1" fill-rule="nonzero"/><path fill="#f9db26" d="M 252.425781 271.707031 C 249.421875 271.707031 246.964844 274.136719 246.964844 277.160156 C 246.964844 280.164062 249.421875 282.617188 252.425781 282.617188 C 255.457031 282.617188 257.886719 280.164062 257.886719 277.160156 C 257.886719 274.136719 255.457031 271.707031 252.425781 271.707031 " fill-opacity="1" fill-rule="nonzero"/><path fill="#f9db26" d="M 90.988281 167.894531 C 93.992188 167.894531 96.449219 165.4375 96.449219 162.4375 C 96.449219 159.410156 93.992188 156.980469 90.988281 156.980469 C 87.957031 156.980469 85.527344 159.410156 85.527344 162.4375 C 85.527344 165.4375 87.957031 167.894531 90.988281 167.894531 " fill-opacity="1" fill-rule="nonzero"/><path fill="#f9db26" d="M 144.800781 271.707031 C 141.769531 271.707031 139.339844 274.136719 139.339844 277.160156 C 139.339844 280.164062 141.769531 282.617188 144.800781 282.617188 C 147.804688 282.617188 150.261719 280.164062 150.261719 277.160156 C 150.261719 274.136719 147.804688 271.707031 144.800781 271.707031 " fill-opacity="1" fill-rule="nonzero"/><path fill="#f9db26" d="M 112.417969 162.4375 C 112.417969 165.4375 114.878906 167.894531 117.878906 167.894531 C 120.914062 167.894531 123.339844 165.4375 123.339844 162.4375 C 123.339844 159.410156 120.914062 156.980469 117.878906 156.980469 C 114.878906 156.980469 112.417969 159.410156 112.417969 162.4375 " fill-opacity="1" fill-rule="nonzero"/><path fill="#f9db26" d="M 144.800781 156.980469 C 141.796875 156.980469 139.339844 159.410156 139.339844 162.4375 C 139.339844 165.4375 141.796875 167.894531 144.800781 167.894531 C 147.804688 167.894531 150.261719 165.4375 150.261719 162.4375 C 150.261719 159.410156 147.804688 156.980469 144.800781 156.980469 " fill-opacity="1" fill-rule="nonzero"/><path fill="#f9db26" d="M 171.722656 282.617188 C 174.722656 282.617188 177.183594 280.164062 177.183594 277.160156 C 177.183594 274.136719 174.722656 271.707031 171.722656 271.707031 C 168.691406 271.707031 166.230469 274.136719 166.230469 277.160156 C 166.230469 280.164062 168.691406 282.617188 171.722656 282.617188 " fill-opacity="1" fill-rule="nonzero"/><path fill="#f9db26" d="M 144.800781 185.65625 C 141.769531 185.65625 139.339844 188.113281 139.339844 191.113281 C 139.339844 194.140625 141.769531 196.566406 144.800781 196.566406 C 147.804688 196.566406 150.261719 194.140625 150.261719 191.113281 C 150.261719 188.113281 147.804688 185.65625 144.800781 185.65625 " fill-opacity="1" fill-rule="nonzero"/><path fill="#f9db26" d="M 198.613281 271.707031 C 195.609375 271.707031 193.152344 274.136719 193.152344 277.160156 C 193.152344 278.375 193.566406 279.484375 194.246094 280.394531 L 202.777344 273.65625 C 201.777344 272.472656 200.296875 271.707031 198.613281 271.707031 " fill-opacity="1" fill-rule="nonzero"/><path fill="#f9db26" d="M 144.800781 300.378906 C 141.769531 300.378906 139.339844 302.835938 139.339844 305.832031 C 139.339844 308.863281 141.769531 311.289062 144.800781 311.289062 C 147.804688 311.289062 150.261719 308.863281 150.261719 305.832031 C 150.261719 302.835938 147.804688 300.378906 144.800781 300.378906 " fill-opacity="1" fill-rule="nonzero"/><path fill="#f9db26" d="M 120.441406 329.71875 L 117.660156 339.945312 L 117.878906 339.96875 C 118.238281 339.96875 118.585938 339.925781 118.925781 339.863281 L 122.855469 336.757812 C 123.160156 336.082031 123.339844 335.332031 123.339844 334.535156 C 123.339844 332.4375 122.164062 330.640625 120.441406 329.71875 " fill-opacity="1" fill-rule="nonzero"/><path fill="#f9db26" d="M 150.226562 220.125 L 149.652344 222.246094 C 149.980469 221.601562 150.179688 220.886719 150.226562 220.125 " fill-opacity="1" fill-rule="nonzero"/><path fill="#f9db26" d="M 144.800781 243.03125 C 144.519531 243.03125 144.25 243.074219 143.980469 243.113281 L 141.375 252.703125 C 142.3125 253.464844 143.492188 253.941406 144.800781 253.941406 C 147.804688 253.941406 150.261719 251.488281 150.261719 248.488281 C 150.261719 245.457031 147.804688 243.03125 144.800781 243.03125 " fill-opacity="1" fill-rule="nonzero"/><path fill="#f9db26" d="M 198.613281 214.328125 C 195.609375 214.328125 193.152344 216.785156 193.152344 219.785156 C 193.152344 222.816406 195.609375 225.242188 198.613281 225.242188 C 201.644531 225.242188 204.074219 222.816406 204.074219 219.785156 C 204.074219 216.785156 201.644531 214.328125 198.613281 214.328125 " fill-opacity="1" fill-rule="nonzero"/><path fill="#f9db26" d="M 171.722656 167.894531 C 174.722656 167.894531 177.152344 165.4375 177.152344 162.4375 C 177.152344 159.410156 174.722656 156.980469 171.722656 156.980469 C 168.691406 156.980469 166.261719 159.410156 166.261719 162.4375 C 166.261719 165.4375 168.691406 167.894531 171.722656 167.894531 " fill-opacity="1" fill-rule="nonzero"/><path fill="#f9db26" d="M 198.613281 156.980469 C 195.609375 156.980469 193.152344 159.410156 193.152344 162.4375 C 193.152344 165.4375 195.609375 167.894531 198.613281 167.894531 C 201.644531 167.894531 204.074219 165.4375 204.074219 162.4375 C 204.074219 159.410156 201.644531 156.980469 198.613281 156.980469 " fill-opacity="1" fill-rule="nonzero"/><path fill="#f9db26" d="M 190.613281 76.390625 C 190.613281 75.492188 190.375 74.65625 189.992188 73.910156 L 188.0625 80.996094 C 189.59375 80.035156 190.613281 78.34375 190.613281 76.390625 " fill-opacity="1" fill-rule="nonzero"/><path fill="#f9db26" d="M 204.074219 47.714844 C 204.074219 44.6875 201.644531 42.257812 198.613281 42.257812 L 198.601562 42.257812 L 195.84375 52.386719 C 196.660156 52.875 197.601562 53.171875 198.613281 53.171875 C 201.644531 53.171875 204.074219 50.714844 204.074219 47.714844 " fill-opacity="1" fill-rule="nonzero"/><path fill="#f9db26" d="M 198.613281 99.605469 C 195.609375 99.605469 193.152344 102.0625 193.152344 105.0625 C 193.152344 108.089844 195.609375 110.519531 198.613281 110.519531 C 201.644531 110.519531 204.074219 108.089844 204.074219 105.0625 C 204.074219 102.0625 201.644531 99.605469 198.613281 99.605469 " fill-opacity="1" fill-rule="nonzero"/><path fill="#f9db26" d="M 333.15625 156.980469 C 330.15625 156.980469 327.695312 159.410156 327.695312 162.4375 C 327.695312 165.4375 330.15625 167.894531 333.15625 167.894531 C 336.160156 167.894531 338.617188 165.4375 338.617188 162.4375 C 338.617188 159.410156 336.160156 156.980469 333.15625 156.980469 " fill-opacity="1" fill-rule="nonzero"/><path fill="#f9db26" d="M 171.722656 225.242188 C 174.722656 225.242188 177.152344 222.816406 177.152344 219.785156 C 177.152344 216.785156 174.722656 214.328125 171.722656 214.328125 C 168.691406 214.328125 166.261719 216.785156 166.261719 219.785156 C 166.261719 222.816406 168.691406 225.242188 171.722656 225.242188 " fill-opacity="1" fill-rule="nonzero"/><path fill="#f9db26" d="M 185.152344 128.308594 C 182.152344 128.308594 179.691406 130.734375 179.691406 133.765625 C 179.691406 136.765625 182.152344 139.222656 185.152344 139.222656 C 188.183594 139.222656 190.613281 136.765625 190.613281 133.765625 C 190.613281 130.734375 188.183594 128.308594 185.152344 128.308594 " fill-opacity="1" fill-rule="nonzero"/><path fill="#f9db26" d="M 185.152344 243.03125 C 182.152344 243.03125 179.691406 245.457031 179.691406 248.488281 C 179.691406 251.488281 182.152344 253.941406 185.152344 253.941406 C 188.183594 253.941406 190.613281 251.488281 190.613281 248.488281 C 190.613281 245.457031 188.183594 243.03125 185.152344 243.03125 " fill-opacity="1" fill-rule="nonzero"/><path fill="#f9db26" d="M 185.152344 185.65625 C 182.152344 185.65625 179.691406 188.113281 179.691406 191.113281 C 179.691406 194.140625 182.152344 196.566406 185.152344 196.566406 C 188.183594 196.566406 190.613281 194.140625 190.613281 191.113281 C 190.613281 188.113281 188.183594 185.65625 185.152344 185.65625 " fill-opacity="1" fill-rule="nonzero"/><path fill="#9c105c" d="M 214.4375 264.449219 L 182.914062 289.339844 L 271.128906 355.175781 L 317.023438 341.007812 Z M 159.703125 30.707031 L 129.832031 140.519531 L 171.878906 140.5 L 205.597656 16.535156 Z M 2.566406 154.730469 L 105.152344 231.285156 L 71.449219 355.277344 L 117.34375 341.113281 L 134.195312 279.113281 L 151.046875 217.121094 L 48.460938 140.558594 L 2.566406 154.730469 " fill-opacity="1" fill-rule="nonzero"/><path fill="#ed1997" d="M 90.988281 214.328125 C 88.921875 214.328125 87.15625 215.484375 86.226562 217.164062 L 94.875 223.617188 C 95.84375 222.632812 96.449219 221.285156 96.449219 219.785156 C 96.449219 216.785156 93.992188 214.328125 90.988281 214.328125 " fill-opacity="1" fill-rule="nonzero"/><path fill="#ed1997" d="M 98.960938 305.832031 C 98.960938 308.863281 101.417969 311.289062 104.449219 311.289062 C 107.453125 311.289062 109.882812 308.863281 109.882812 305.832031 C 109.882812 302.835938 107.453125 300.378906 104.449219 300.378906 C 101.417969 300.378906 98.960938 302.835938 98.960938 305.832031 " fill-opacity="1" fill-rule="nonzero"/><path fill="#ed1997" d="M 104.421875 185.65625 C 101.417969 185.65625 98.960938 188.113281 98.960938 191.113281 C 98.960938 194.140625 101.417969 196.566406 104.421875 196.566406 C 107.453125 196.566406 109.882812 194.140625 109.882812 191.113281 C 109.882812 188.113281 107.453125 185.65625 104.421875 185.65625 " fill-opacity="1" fill-rule="nonzero"/><path fill="#ed1997" d="M 96.449219 277.160156 C 96.449219 275.226562 95.4375 273.542969 93.929688 272.574219 L 91.207031 282.597656 C 94.105469 282.476562 96.449219 280.089844 96.449219 277.160156 " fill-opacity="1" fill-rule="nonzero"/><path fill="#ed1997" d="M 90.988281 339.96875 C 93.992188 339.96875 96.449219 337.539062 96.449219 334.535156 C 96.449219 331.507812 93.992188 329.050781 90.988281 329.050781 C 87.957031 329.050781 85.527344 331.507812 85.527344 334.535156 C 85.527344 337.539062 87.957031 339.96875 90.988281 339.96875 " fill-opacity="1" fill-rule="nonzero"/><path fill="#ed1997" d="M 117.878906 214.328125 C 114.878906 214.328125 112.417969 216.785156 112.417969 219.785156 C 112.417969 222.816406 114.878906 225.242188 117.878906 225.242188 C 120.914062 225.242188 123.339844 222.816406 123.339844 219.785156 C 123.339844 216.785156 120.914062 214.328125 117.878906 214.328125 " fill-opacity="1" fill-rule="nonzero"/><path fill="#ed1997" d="M 112.417969 334.535156 C 112.417969 337.460938 114.761719 339.828125 117.660156 339.945312 L 120.441406 329.71875 C 119.675781 329.308594 118.8125 329.050781 117.878906 329.050781 C 114.878906 329.050781 112.417969 331.507812 112.417969 334.535156 " fill-opacity="1" fill-rule="nonzero"/><path fill="#ed1997" d="M 117.878906 282.617188 C 120.914062 282.617188 123.339844 280.164062 123.339844 277.160156 C 123.339844 274.136719 120.914062 271.707031 117.878906 271.707031 C 114.878906 271.707031 112.417969 274.136719 112.417969 277.160156 C 112.417969 280.164062 114.878906 282.617188 117.878906 282.617188 " fill-opacity="1" fill-rule="nonzero"/><path fill="#ed1997" d="M 139.339844 248.488281 C 139.339844 250.191406 140.140625 251.699219 141.371094 252.703125 L 143.980469 243.113281 C 141.347656 243.507812 139.339844 245.742188 139.339844 248.488281 " fill-opacity="1" fill-rule="nonzero"/><path fill="#ed1997" d="M 10.257812 156.980469 C 9.039062 156.980469 7.929688 157.386719 7.023438 158.054688 L 15.371094 164.28125 C 15.582031 163.703125 15.714844 163.089844 15.714844 162.4375 C 15.714844 159.410156 13.257812 156.980469 10.257812 156.980469 " fill-opacity="1" fill-rule="nonzero"/><path fill="#ed1997" d="M 144.800781 214.328125 C 141.769531 214.328125 139.339844 216.785156 139.339844 219.785156 C 139.339844 222.816406 141.769531 225.242188 144.800781 225.242188 C 146.917969 225.242188 148.75 224.019531 149.652344 222.246094 L 150.226562 220.125 C 150.234375 220.011719 150.261719 219.902344 150.261719 219.785156 C 150.261719 216.785156 147.804688 214.328125 144.800781 214.328125 " fill-opacity="1" fill-rule="nonzero"/><path fill="#ed1997" d="M 31.6875 162.4375 C 31.6875 165.4375 34.144531 167.894531 37.175781 167.894531 C 40.179688 167.894531 42.636719 165.4375 42.636719 162.4375 C 42.636719 159.410156 40.179688 156.980469 37.175781 156.980469 C 34.144531 156.980469 31.6875 159.410156 31.6875 162.4375 " fill-opacity="1" fill-rule="nonzero"/><path fill="#ed1997" d="M 64.070312 196.566406 C 67.101562 196.566406 69.527344 194.140625 69.527344 191.113281 C 69.527344 188.113281 67.101562 185.65625 64.070312 185.65625 C 61.039062 185.65625 58.609375 188.113281 58.609375 191.113281 C 58.609375 194.140625 61.039062 196.566406 64.070312 196.566406 " fill-opacity="1" fill-rule="nonzero"/><path fill="#ed1997" d="M 104.421875 243.03125 C 103.449219 243.03125 102.550781 243.308594 101.761719 243.75 L 99.738281 251.203125 C 100.675781 252.832031 102.410156 253.941406 104.421875 253.941406 C 107.453125 253.941406 109.882812 251.488281 109.882812 248.488281 C 109.882812 245.457031 107.453125 243.03125 104.421875 243.03125 " fill-opacity="1" fill-rule="nonzero"/><path fill="#ed1997" d="M 64.070312 167.894531 C 67.101562 167.894531 69.527344 165.4375 69.527344 162.4375 C 69.527344 159.410156 67.101562 156.980469 64.070312 156.980469 C 61.066406 156.980469 58.609375 159.410156 58.609375 162.4375 C 58.609375 165.4375 61.066406 167.894531 64.070312 167.894531 " fill-opacity="1" fill-rule="nonzero"/><path fill="#ed1997" d="M 190.097656 21.320312 L 182.371094 23.707031 C 183.191406 24.199219 184.136719 24.5 185.152344 24.5 C 187.359375 24.5 189.234375 23.1875 190.097656 21.320312 " fill-opacity="1" fill-rule="nonzero"/><path fill="#ed1997" d="M 273.886719 334.535156 C 273.886719 337.539062 276.3125 339.96875 279.347656 339.96875 C 282.347656 339.96875 284.804688 337.539062 284.804688 334.535156 C 284.804688 331.507812 282.347656 329.050781 279.347656 329.050781 C 276.3125 329.050781 273.886719 331.507812 273.886719 334.535156 " fill-opacity="1" fill-rule="nonzero"/><path fill="#ed1997" d="M 220.074219 277.160156 C 220.074219 280.164062 222.5 282.617188 225.53125 282.617188 C 228.535156 282.617188 230.992188 280.164062 230.992188 277.160156 C 230.992188 277.027344 230.964844 276.90625 230.953125 276.773438 L 224.34375 271.839844 C 221.890625 272.378906 220.074219 274.542969 220.074219 277.160156 " fill-opacity="1" fill-rule="nonzero"/><path fill="#ed1997" d="M 260.425781 305.832031 C 260.425781 308.863281 262.855469 311.289062 265.886719 311.289062 C 268.570312 311.289062 270.777344 309.386719 271.246094 306.84375 L 263.410156 300.996094 C 261.640625 301.902344 260.425781 303.722656 260.425781 305.832031 " fill-opacity="1" fill-rule="nonzero"/><path fill="#ed1997" d="M 225.53125 311.289062 C 228.535156 311.289062 230.992188 308.863281 230.992188 305.832031 C 230.992188 302.835938 228.535156 300.378906 225.53125 300.378906 C 222.5 300.378906 220.074219 302.835938 220.074219 305.832031 C 220.074219 308.863281 222.5 311.289062 225.53125 311.289062 " fill-opacity="1" fill-rule="nonzero"/><path fill="#ed1997" d="M 302.757812 330.363281 C 301.570312 331.367188 300.808594 332.855469 300.808594 334.535156 C 300.808594 337.539062 303.234375 339.96875 306.265625 339.96875 C 308.496094 339.96875 310.417969 338.625 311.265625 336.707031 L 302.757812 330.363281 " fill-opacity="1" fill-rule="nonzero"/><path fill="#ed1997" d="M 257.886719 334.535156 C 257.886719 331.507812 255.457031 329.050781 252.425781 329.050781 C 249.421875 329.050781 246.964844 331.507812 246.964844 334.535156 C 246.964844 335.992188 247.550781 337.304688 248.488281 338.277344 L 249.84375 339.292969 C 250.617188 339.710938 251.488281 339.96875 252.425781 339.96875 C 255.457031 339.96875 257.886719 337.539062 257.886719 334.535156 " fill-opacity="1" fill-rule="nonzero"/><path fill="#ed1997" d="M 150.261719 76.390625 C 150.261719 74.765625 149.527344 73.3125 148.386719 72.3125 L 145.820312 81.742188 C 148.339844 81.265625 150.261719 79.066406 150.261719 76.390625 " fill-opacity="1" fill-rule="nonzero"/><path fill="#ed1997" d="M 198.613281 282.617188 C 201.644531 282.617188 204.074219 280.164062 204.074219 277.160156 C 204.074219 275.816406 203.574219 274.605469 202.777344 273.65625 L 194.246094 280.394531 C 195.242188 281.734375 196.824219 282.617188 198.613281 282.617188 " fill-opacity="1" fill-rule="nonzero"/><path fill="#ed1997" d="M 144.800781 139.222656 C 147.804688 139.222656 150.261719 136.765625 150.261719 133.765625 C 150.261719 130.734375 147.804688 128.308594 144.800781 128.308594 C 141.796875 128.308594 139.339844 130.734375 139.339844 133.765625 C 139.339844 136.765625 141.796875 139.222656 144.800781 139.222656 " fill-opacity="1" fill-rule="nonzero"/><path fill="#ed1997" d="M 144.800781 110.519531 C 147.804688 110.519531 150.261719 108.089844 150.261719 105.0625 C 150.261719 102.0625 147.804688 99.605469 144.800781 99.605469 C 142.9375 99.605469 141.308594 100.539062 140.324219 101.953125 L 139.378906 105.429688 C 139.566406 108.28125 141.894531 110.519531 144.800781 110.519531 " fill-opacity="1" fill-rule="nonzero"/><path fill="#ed1997" d="M 166.261719 47.714844 C 166.261719 50.714844 168.691406 53.171875 171.722656 53.171875 C 174.722656 53.171875 177.183594 50.714844 177.183594 47.714844 C 177.183594 44.6875 174.722656 42.257812 171.722656 42.257812 C 168.691406 42.257812 166.261719 44.6875 166.261719 47.714844 " fill-opacity="1" fill-rule="nonzero"/><path fill="#ed1997" d="M 171.722656 110.519531 C 174.722656 110.519531 177.183594 108.089844 177.183594 105.0625 C 177.183594 102.0625 174.722656 99.605469 171.722656 99.605469 C 168.691406 99.605469 166.261719 102.0625 166.261719 105.0625 C 166.261719 108.089844 168.691406 110.519531 171.722656 110.519531 " fill-opacity="1" fill-rule="nonzero"/><path fill="#ed1997" d="M 185.152344 70.933594 C 182.152344 70.933594 179.691406 73.386719 179.691406 76.390625 C 179.691406 79.417969 182.152344 81.84375 185.152344 81.84375 C 186.230469 81.84375 187.222656 81.527344 188.0625 80.996094 L 189.992188 73.910156 C 189.089844 72.152344 187.277344 70.933594 185.152344 70.933594 " fill-opacity="1" fill-rule="nonzero"/><path fill="#ed1997" d="M 193.152344 47.714844 C 193.152344 49.703125 194.246094 51.433594 195.84375 52.386719 L 198.601562 42.257812 C 195.601562 42.269531 193.152344 44.691406 193.152344 47.714844 " fill-opacity="1" fill-rule="nonzero"/><g clip-path="url(#b4c8ad9072)"><path fill="#040606" d="M 205.605469 16.8125 C 200.03125 37.785156 194.671875 58.757812 189.496094 79.476562 L 173.695312 140.992188 C 173.484375 141.824219 172.738281 142.375 171.917969 142.382812 L 171.878906 142.382812 L 48.464844 143.277344 L 50.089844 138.386719 L 152.78125 214.796875 C 153.761719 215.523438 154.144531 216.765625 153.84375 217.878906 L 119.710938 341.753906 L 115.824219 339.1875 L 213.5 263.261719 L 213.519531 263.25 C 214.066406 262.824219 214.820312 262.835938 215.34375 263.238281 L 266.335938 301.917969 L 317.515625 340.347656 L 316.242188 341.273438 L 294.726562 279.394531 L 272.847656 217.636719 C 272.601562 216.945312 272.835938 216.199219 273.371094 215.765625 L 273.402344 215.746094 L 321.613281 176.980469 L 370.054688 138.5 L 371.574219 142.878906 L 309.867188 142.679688 L 248.160156 142.398438 L 248.125 142.398438 C 247.292969 142.394531 246.59375 141.851562 246.347656 141.109375 L 226.136719 79.585938 C 219.5 58.816406 212.671875 37.9375 205.605469 16.8125 Z M 205.589844 16.265625 C 212.710938 36.453125 220.070312 56.886719 227.617188 77.441406 L 249.96875 139.863281 L 248.15625 138.574219 L 309.867188 138.234375 L 371.574219 137.972656 C 372.929688 137.964844 374.03125 139.058594 374.035156 140.414062 C 374.039062 141.195312 373.664062 141.902344 373.097656 142.351562 L 324.417969 180.53125 L 275.515625 218.417969 L 276.070312 216.53125 L 296.757812 278.695312 L 317.800781 340.738281 C 317.949219 341.171875 317.71875 341.640625 317.285156 341.785156 C 317.023438 341.875 316.738281 341.816406 316.53125 341.664062 L 265.125 303.539062 L 213.535156 265.664062 L 215.378906 265.636719 L 118.863281 343.03125 C 117.8125 343.878906 116.273438 343.707031 115.425781 342.65625 C 114.921875 342.03125 114.777344 341.230469 114.96875 340.507812 L 114.980469 340.46875 L 148.246094 216.359375 L 149.308594 219.441406 L 46.835938 142.734375 L 46.816406 142.722656 C 45.621094 141.824219 45.375 140.125 46.273438 138.929688 C 46.804688 138.21875 47.636719 137.84375 48.460938 137.84375 L 171.878906 138.617188 L 170.0625 140.007812 L 187.980469 77.558594 C 194.046875 56.957031 199.925781 36.613281 205.589844 16.265625 " fill-opacity="1" fill-rule="nonzero"/></g><g clip-path="url(#1f3d7f9429)"><path fill="#040606" d="M 172.042969 140.714844 C 165.296875 141.097656 158.367188 141.507812 151.300781 141.828125 C 144.234375 142.117188 137.066406 142.496094 129.835938 142.683594 C 128.664062 142.710938 127.691406 141.789062 127.660156 140.617188 C 127.65625 140.429688 127.675781 140.25 127.714844 140.078125 L 127.746094 139.953125 C 129.960938 130.730469 132.257812 121.527344 134.625 112.339844 C 136.972656 103.148438 139.429688 93.992188 141.96875 84.851562 L 149.792969 57.496094 C 152.414062 48.382812 155.109375 39.285156 157.90625 30.21875 L 157.945312 30.097656 C 158.125 29.507812 158.601562 29.082031 159.152344 28.929688 C 174.621094 24.75 190.097656 20.609375 205.347656 15.722656 C 205.792969 15.578125 206.269531 15.824219 206.414062 16.269531 C 206.46875 16.433594 206.464844 16.609375 206.421875 16.761719 C 203.632812 27.136719 201.3125 37.683594 198.808594 48.269531 C 196.371094 58.875 193.722656 69.480469 190.761719 79.875 C 184.863281 100.664062 178.636719 121.261719 172.042969 140.714844 Z M 171.714844 140.28125 C 176.359375 118.417969 181.371094 97.691406 186.714844 77.160156 C 189.375 66.898438 192.339844 56.84375 195.527344 46.785156 C 198.644531 36.710938 201.941406 26.601562 204.773438 16.3125 L 205.851562 17.355469 C 190.5 21.910156 175.382812 27.214844 160.253906 32.484375 L 161.5 31.195312 C 159.316406 40.429688 157.035156 49.636719 154.679688 58.820312 L 147.570312 86.375 C 145.128906 95.539062 142.605469 104.679688 139.976562 113.792969 C 137.363281 122.910156 134.683594 132.007812 131.921875 141.085938 L 129.832031 138.359375 C 136.617188 138.535156 143.460938 138.910156 150.410156 139.195312 L 171.714844 140.28125 " fill-opacity="1" fill-rule="nonzero"/></g><g clip-path="url(#8767bfd207)"><path fill="#040606" d="M 48.542969 140.820312 C 41.050781 143.695312 33.527344 146.464844 25.964844 149.105469 C 18.40625 151.757812 10.824219 154.332031 3.214844 156.820312 L 3.878906 152.972656 C 12.546875 159.199219 21.160156 165.488281 29.660156 171.929688 C 38.144531 178.398438 46.390625 185.183594 54.730469 191.84375 C 63.007812 198.582031 71.4375 205.125 80.003906 211.476562 C 88.539062 217.875 97.300781 223.972656 106.039062 230.097656 C 106.53125 230.4375 106.738281 231.03125 106.609375 231.582031 L 106.585938 231.675781 L 102.890625 247.316406 L 99.023438 262.90625 L 91.019531 294.019531 C 88.339844 304.390625 85.546875 314.726562 82.605469 325.023438 C 79.714844 335.332031 76.703125 345.609375 73.625 355.871094 L 70.785156 353.128906 C 78.484375 350.933594 86.234375 348.898438 93.96875 346.804688 C 101.695312 344.699219 109.476562 342.757812 117.265625 340.847656 C 117.410156 340.8125 117.558594 340.902344 117.59375 341.050781 C 117.628906 341.1875 117.554688 341.324219 117.425781 341.371094 C 109.917969 344.1875 102.398438 346.964844 94.828125 349.585938 C 87.261719 352.214844 79.714844 354.902344 72.117188 357.429688 C 70.949219 357.820312 69.6875 357.1875 69.300781 356.023438 C 69.164062 355.613281 69.152344 355.195312 69.246094 354.800781 L 69.273438 354.691406 C 71.816406 344.285156 74.421875 333.894531 77.144531 323.539062 C 79.820312 313.167969 82.644531 302.84375 85.582031 292.546875 L 94.425781 261.660156 L 98.988281 246.257812 L 103.714844 230.898438 L 104.261719 232.476562 C 95.902344 225.839844 87.566406 219.175781 79.003906 212.816406 C 70.476562 206.40625 61.808594 200.191406 52.988281 194.171875 C 44.230469 188.070312 35.382812 182.09375 26.765625 175.804688 C 18.171875 169.488281 9.6875 163.019531 1.257812 156.480469 L 1.195312 156.433594 C 0.246094 155.699219 0.0742188 154.339844 0.808594 153.390625 C 1.101562 153.015625 1.496094 152.757812 1.921875 152.636719 C 9.609375 150.402344 17.324219 148.253906 25.0625 146.183594 C 32.800781 144.101562 40.574219 142.148438 48.382812 140.300781 C 48.527344 140.265625 48.675781 140.355469 48.710938 140.503906 C 48.742188 140.636719 48.667969 140.773438 48.542969 140.820312 " fill-opacity="1" fill-rule="nonzero"/></g><g clip-path="url(#4dcdd65423)"><path fill="#040606" d="M 183.074219 289.121094 C 191.269531 293.484375 198.90625 298.589844 206.390625 303.898438 C 210.148438 306.527344 213.789062 309.316406 217.289062 312.292969 L 227.664062 321.398438 C 234.660156 327.359375 242.351562 332.394531 250.125 337.3125 C 257.945312 342.167969 265.324219 347.621094 272.855469 352.867188 L 270.277344 352.421875 C 277.890625 349.941406 285.601562 347.789062 293.367188 345.796875 C 301.136719 343.824219 308.976562 342.082031 316.941406 340.746094 C 317.089844 340.722656 317.234375 340.824219 317.261719 340.972656 C 317.28125 341.097656 317.214844 341.21875 317.101562 341.269531 C 309.773438 344.65625 302.3125 347.636719 294.785156 350.382812 C 287.25 353.117188 279.664062 355.683594 271.980469 357.929688 L 271.851562 357.96875 C 270.976562 358.222656 270.066406 358.007812 269.402344 357.484375 C 262.234375 351.753906 254.90625 346.234375 248.023438 340.125 C 241.097656 334.070312 234.085938 328.128906 226.375 323.121094 L 214.699219 315.761719 C 210.847656 313.253906 207.136719 310.554688 203.542969 307.699219 C 196.328125 302.039062 189.257812 296.171875 182.75 289.558594 C 182.644531 289.449219 182.644531 289.277344 182.753906 289.167969 C 182.839844 289.082031 182.972656 289.066406 183.074219 289.121094 " fill-opacity="1" fill-rule="nonzero"/></g><path fill="#ffffff" d="M 204.074219 54.746094 C 208.171875 62.714844 211.757812 70.859375 215.359375 78.996094 L 220.566406 91.273438 L 225.527344 103.628906 C 228.832031 111.871094 231.933594 120.179688 234.972656 128.511719 C 237.992188 136.847656 240.949219 145.207031 243.761719 153.617188 L 238.625 149.953125 C 246.378906 149.976562 254.132812 150.113281 261.882812 150.320312 C 269.636719 150.507812 277.390625 150.847656 285.144531 151.269531 C 292.894531 151.609375 300.648438 152.214844 308.402344 152.816406 C 316.152344 153.503906 323.90625 154.21875 331.660156 155.332031 C 323.910156 156.453125 316.15625 157.175781 308.402344 157.871094 C 300.652344 158.480469 292.898438 159.09375 285.148438 159.441406 C 277.394531 159.871094 269.640625 160.21875 261.890625 160.410156 C 254.136719 160.628906 246.382812 160.769531 238.628906 160.800781 C 236.273438 160.808594 234.261719 159.308594 233.515625 157.207031 L 233.496094 157.136719 C 230.546875 148.777344 227.742188 140.363281 225.007812 131.929688 C 222.285156 123.488281 219.628906 115.027344 217.175781 106.496094 L 213.496094 93.695312 L 210.066406 80.8125 C 207.910156 72.175781 205.738281 63.550781 204.074219 54.746094 " fill-opacity="1" fill-rule="nonzero"/><path fill="#ffffff" d="M 113.207031 168.484375 C 118.636719 171 123.757812 173.9375 128.90625 176.828125 C 133.972656 179.839844 139.039062 182.847656 143.957031 186.046875 C 153.828125 192.410156 163.433594 199.128906 172.804688 206.160156 L 172.824219 206.175781 C 174.65625 207.550781 175.367188 209.875 174.804688 211.957031 C 171.816406 222.863281 168.484375 233.675781 164.746094 244.378906 C 162.882812 249.734375 160.820312 255.03125 158.742188 260.328125 C 156.550781 265.589844 154.375 270.859375 151.746094 276.007812 C 152.078125 270.238281 152.871094 264.59375 153.644531 258.945312 C 154.53125 253.324219 155.4375 247.710938 156.539062 242.152344 C 158.730469 231.03125 161.332031 220.019531 164.28125 209.101562 L 166.277344 214.894531 C 156.867188 207.914062 147.699219 200.613281 138.789062 192.964844 C 134.320312 189.15625 129.996094 185.15625 125.667969 181.164062 C 121.429688 177.046875 117.164062 172.972656 113.207031 168.484375 " fill-opacity="1" fill-rule="nonzero"/></svg>